<?xml version="1.0" standalone="no"?>
<!DOCTYPE svg PUBLIC "-//W3C//DTD SVG 20010904//EN"
 "http://www.w3.org/TR/2001/REC-SVG-20010904/DTD/svg10.dtd">
<svg version="1.0" xmlns="http://www.w3.org/2000/svg"
 width="96.000000pt" height="96.000000pt" viewBox="0 0 96.000000 96.000000"
 preserveAspectRatio="xMidYMid meet">

<g transform="translate(0.000000,96.000000) scale(0.100000,-0.100000)"
fill="#000000" stroke="none">
<path d="M775 908 c-27 -14 -55 -49 -55 -69 0 -39 -547 -592 -618 -626 -64
-30 -79 -107 -29 -154 30 -28 93 -21 124 15 l22 26 251 0 c241 0 252 -1 280
-21 37 -28 106 -22 132 11 23 29 23 81 -1 111 -17 22 -19 48 -22 289 -4 264
-4 265 19 288 26 26 28 52 7 93 -23 43 -70 59 -110 37z m90 -48 c9 -17 13 -40
10 -50 -9 -28 -68 -37 -100 -16 -48 32 -20 96 41 96 27 0 36 -6 49 -30z m-125
-71 c0 -14 -230 -279 -315 -363 -95 -93 -241 -216 -256 -216 -7 0 107 121 253
268 146 147 273 280 283 295 18 28 35 36 35 16z m40 -256 l0 -213 -80 0 -80 0
0 -70 0 -70 -127 0 -128 0 -25 55 -26 54 88 81 c48 45 149 153 225 240 92 107
140 156 145 147 4 -6 8 -108 8 -224z m50 -33 c0 -201 -3 -260 -12 -260 -10 0
-13 60 -15 260 -2 222 0 260 12 260 13 0 15 -39 15 -260z m-50 -229 c0 -45
-51 -91 -101 -91 l-39 0 0 60 0 60 70 0 70 0 0 -29z m-465 -31 c28 -53 22 -60
-50 -60 -36 0 -65 3 -64 8 0 7 87 82 94 82 3 0 11 -13 20 -30z m542 -42 c18
-14 26 -64 14 -86 -21 -40 -112 -35 -126 7 -21 67 57 123 112 79z m-699 -14
c53 -37 51 -87 -5 -110 -31 -13 -38 -13 -59 1 -37 24 -36 68 2 103 30 26 33
27 62 6z m560 -39 c3 -3 3 -7 1 -9 -2 -2 -115 -7 -251 -11 -220 -6 -248 -5
-248 8 0 10 12 18 33 21 39 5 459 -2 465 -9z"/>
</g>
</svg>
